<?xml version="1.0" encoding="UTF-8"?>
<svg width="801px" height="176px" viewBox="0 0 801 176" version="1.1" xmlns="http://www.w3.org/2000/svg" xmlns:xlink="http://www.w3.org/1999/xlink">
    <!-- Generator: Sketch 41.2 (35397) - http://www.bohemiancoding.com/sketch -->
    <title>Spurs</title>
    <desc>Created with Sketch.</desc>
    <defs></defs>
    <g id="Page-1" stroke="none" stroke-width="1" fill="none" fill-rule="evenodd">
        <g id="Spurs" fill="#F8F8F8">
            <rect id="31-6" transform="translate(55.152543, 20.152543) rotate(-45.000000) translate(-55.152543, -20.152543) " x="30.1525433" y="16.6525433" width="50" height="7"></rect>
            <rect id="32-7" transform="translate(278.000000, 20.152543) rotate(-45.000000) translate(-278.000000, -20.152543) " x="253" y="16.6525433" width="50" height="7"></rect>
            <rect id="TY33-1" transform="translate(546.152543, 20.152543) scale(-1, 1) rotate(-45.000000) translate(-546.152543, -20.152543) " x="521.152543" y="16.6525433" width="50" height="7"></rect>
            <rect id="TY33-1" transform="translate(780.883012, 20.152543) scale(-1, 1) rotate(-45.000000) translate(-780.883012, -20.152543) " x="755.883012" y="16.6525433" width="50" height="7"></rect>
            <rect id="TY32-6" transform="translate(593.660356, 155.152543) scale(-1, 1) rotate(-45.000000) translate(-593.660356, -155.152543) " x="568.660356" y="151.652543" width="50" height="7"></rect>
            <rect id="TY32-7" transform="translate(505.847457, 155.152543) rotate(-45.000000) translate(-505.847457, -155.152543) " x="480.847457" y="151.652543" width="50" height="7"></rect>
            <rect id="30-2" transform="translate(20.847457, 154.152543) rotate(-45.000000) translate(-20.847457, -154.152543) " x="-4.15254326" y="150.652543" width="50" height="7"></rect>
        </g>
    </g>
</svg>